<svg width="300" height="231" viewBox="0 0 300 231" fill="none" xmlns="http://www.w3.org/2000/svg">
<path opacity="0.1" d="M137.469 203.543C206.322 203.543 262.139 199.209 262.139 193.863C262.139 188.517 206.322 184.183 137.469 184.183C68.6155 184.183 12.7988 188.517 12.7988 193.863C12.7988 199.209 68.6155 203.543 137.469 203.543Z" fill="#3B4EF2"/>
<path opacity="0.1" d="M101.599 15.2278C100.439 15.0077 99.24 15.1384 98.1549 15.6033C97.5041 15.8933 96.7995 16.0432 96.0869 16.0432C95.3743 16.0432 94.6697 15.8933 94.0188 15.6033C93.2495 15.2661 92.4162 15.1001 91.5764 15.1168C90.7366 15.1335 89.9105 15.3325 89.1552 15.7001C88.7239 15.9279 88.2438 16.0477 87.756 16.0492C85.7847 16.0492 84.145 14.0632 83.8047 11.4437C84.1977 11.1556 84.5322 10.7952 84.7903 10.3818C85.9461 8.5191 87.7237 7.32227 89.7448 7.32227C91.766 7.32227 93.526 8.49563 94.6818 10.3466C95.0271 10.9025 95.5096 11.3601 96.0829 11.6756C96.6562 11.991 97.3011 12.1536 97.9555 12.1477H98.0083C99.563 12.1389 100.921 13.3974 101.599 15.2278Z" fill="#6C63FF"/>
<path opacity="0.1" d="M35.3038 55.8669C33.6473 55.5535 31.9351 55.7393 30.3844 56.4008C29.4538 56.8133 28.4468 57.0252 27.4289 57.0227C26.411 57.0201 25.405 56.8032 24.4765 56.3861C23.3779 55.9044 22.1876 55.6672 20.9882 55.691C19.7888 55.7148 18.6089 55.9991 17.5302 56.524C16.9133 56.849 16.2269 57.0201 15.5296 57.0227C12.7136 57.0227 10.3698 54.1861 9.88281 50.443C10.4455 50.033 10.9237 49.518 11.2909 48.9265C12.9424 46.2658 15.5003 44.5557 18.3721 44.5557C21.2439 44.5557 23.7696 46.2453 25.4123 48.8766C25.906 49.6741 26.5977 50.3302 27.4202 50.781C28.2427 51.2318 29.1679 51.462 30.1058 51.4492H30.1791C32.4026 51.4462 34.3445 53.2444 35.3038 55.8669Z" fill="#6C63FF"/>
<path opacity="0.1" d="M219.41 26.6673C220.57 26.4473 221.769 26.578 222.854 27.0428C223.504 27.3329 224.208 27.4829 224.921 27.4829C225.633 27.4829 226.337 27.3329 226.987 27.0428C227.756 26.7055 228.59 26.5395 229.43 26.5563C230.269 26.573 231.096 26.772 231.851 27.1396C232.282 27.367 232.762 27.4868 233.25 27.4886C235.221 27.4886 236.864 25.5027 237.204 22.8832C236.811 22.5958 236.476 22.2353 236.219 21.8213C235.069 19.9527 233.271 18.7471 231.255 18.7471C229.24 18.7471 227.477 19.9204 226.321 21.7714C225.977 22.3298 225.494 22.7897 224.919 23.1068C224.345 23.4239 223.698 23.5873 223.042 23.5813H222.992C221.431 23.5784 220.07 24.8368 219.41 26.6673Z" fill="#6C63FF"/>
<path opacity="0.1" d="M180.59 227.891C199.221 227.891 214.324 225.264 214.324 222.024C214.324 218.784 199.221 216.157 180.59 216.157C161.959 216.157 146.855 218.784 146.855 222.024C146.855 225.264 161.959 227.891 180.59 227.891Z" fill="#3B4EF2"/>
<path d="M162.934 194.157L110.663 193.485L110.819 192.144L113.344 170.029H159.249L162.626 192.144L162.884 193.822L162.934 194.157Z" fill="#D0D2D5"/>
<path opacity="0.1" d="M162.884 193.822H136.8L110.663 193.485L110.819 192.145H162.626L162.884 193.822Z" fill="black"/>
<path d="M171.312 192.481H101.951V194.156H171.312V192.481Z" fill="#D0D2D5"/>
<path d="M237.486 37.2048C237.49 36.0489 237.035 34.9388 236.221 34.1182C235.407 33.2975 234.301 32.8336 233.145 32.8281H39.446C38.8732 32.8308 38.3065 32.9463 37.7783 33.168C37.2501 33.3897 36.7707 33.7133 36.3676 34.1202C35.9645 34.5272 35.6454 35.0096 35.4287 35.5398C35.212 36.0701 35.1018 36.6378 35.1045 37.2106V154.62H237.486V37.2048Z" fill="#161056"/>
<path d="M35.1045 153.446V167.198C35.1045 168.35 35.5619 169.454 36.3761 170.268C37.1902 171.082 38.2945 171.54 39.4459 171.54H233.145C234.296 171.54 235.401 171.082 236.215 170.268C237.029 169.454 237.486 168.35 237.486 167.198V153.446H35.1045Z" fill="#D0D2D5"/>
<path d="M230.115 40.1904H43.4824V145.738H230.115V40.1904Z" fill="white"/>
<path d="M137.301 166.322C137.987 166.323 138.663 166.167 139.279 165.868C139.896 165.569 140.436 165.133 140.859 164.594C140.988 164.43 141.106 164.257 141.211 164.078L138.727 163.658L141.411 163.676C141.668 163.116 141.809 162.51 141.823 161.894C141.838 161.278 141.726 160.665 141.496 160.094L137.897 161.96L141.217 159.519C140.905 158.983 140.487 158.517 139.987 158.15C139.487 157.782 138.918 157.522 138.313 157.384C137.708 157.246 137.082 157.234 136.472 157.348C135.863 157.463 135.283 157.701 134.77 158.049C134.257 158.397 133.82 158.847 133.488 159.371C133.156 159.894 132.935 160.481 132.839 161.093C132.743 161.706 132.774 162.332 132.93 162.932C133.086 163.532 133.364 164.094 133.746 164.582C134.168 165.123 134.707 165.561 135.323 165.862C135.939 166.164 136.615 166.321 137.301 166.322Z" fill="#3B4EF2" fill-opacity="0.9"/>
<path opacity="0.1" d="M141.824 171.537L162.678 192.482L159.477 171.537H141.824Z" fill="black"/>
<path opacity="0.1" d="M230.17 40.2021H43.335V46.3682H230.17V40.2021Z" fill="#444053"/>
<path opacity="0.3" d="M164.327 41.2764H108.375C108.281 41.2764 108.205 41.3525 108.205 41.4465V44.8581C108.205 44.952 108.281 45.0282 108.375 45.0282H164.327C164.421 45.0282 164.497 44.952 164.497 44.8581V41.4465C164.497 41.3525 164.421 41.2764 164.327 41.2764Z" fill="#D0D5FF"/>
<path d="M162.825 43.5405H162.687L162.637 43.4965C162.808 43.2913 162.901 43.0329 162.901 42.766C162.899 42.547 162.833 42.3334 162.71 42.1521C162.587 41.9709 162.413 41.8301 162.21 41.7476C162.007 41.6651 161.784 41.6446 161.57 41.6886C161.355 41.7326 161.158 41.8392 161.004 41.9949C160.85 42.1506 160.746 42.3485 160.704 42.5635C160.662 42.7786 160.685 43.0012 160.77 43.2032C160.854 43.4053 160.997 43.5777 161.179 43.6988C161.362 43.8199 161.576 43.8842 161.795 43.8837C162.063 43.8827 162.321 43.7883 162.526 43.6167L162.576 43.6607V43.7986L163.435 44.6581L163.69 44.4L162.825 43.5405ZM161.795 43.5405C161.642 43.541 161.492 43.4961 161.364 43.4114C161.237 43.3266 161.137 43.2059 161.078 43.0644C161.019 42.923 161.003 42.7672 161.032 42.6168C161.062 42.4664 161.136 42.3281 161.244 42.2195C161.352 42.1109 161.49 42.0368 161.64 42.0067C161.791 41.9766 161.946 41.9918 162.088 42.0503C162.23 42.1088 162.351 42.2081 162.436 42.3355C162.521 42.4629 162.567 42.6128 162.567 42.766C162.568 42.8677 162.548 42.9685 162.51 43.0626C162.471 43.1568 162.415 43.2423 162.343 43.3143C162.271 43.3864 162.186 43.4434 162.092 43.4823C161.998 43.5211 161.897 43.5409 161.795 43.5405Z" fill="#3F3D56"/>
<path opacity="0.8" d="M46.6938 44.4151C47.3175 44.4151 47.8232 43.9093 47.8232 43.2856C47.8232 42.6619 47.3175 42.1562 46.6938 42.1562C46.0701 42.1562 45.5645 42.6619 45.5645 43.2856C45.5645 43.9093 46.0701 44.4151 46.6938 44.4151Z" fill="#FA5959"/>
<path opacity="0.8" d="M49.8003 44.4151C50.424 44.4151 50.9296 43.9093 50.9296 43.2856C50.9296 42.6619 50.424 42.1562 49.8003 42.1562C49.1765 42.1562 48.6709 42.6619 48.6709 43.2856C48.6709 43.9093 49.1765 44.4151 49.8003 44.4151Z" fill="#FED253"/>
<path opacity="0.8" d="M52.9096 44.4151C53.5334 44.4151 54.039 43.9093 54.039 43.2856C54.039 42.6619 53.5334 42.1562 52.9096 42.1562C52.2859 42.1562 51.7803 42.6619 51.7803 43.2856C51.7803 43.9093 52.2859 44.4151 52.9096 44.4151Z" fill="#8CCF4D"/>
<path d="M146.686 85.4797C144.125 82.0769 140.414 79.9297 136.284 79.9297C132.153 79.9297 128.443 82.0769 125.882 85.4797C126.448 86.8683 127.286 88.1299 128.346 89.1905C129.656 90.5 131.27 91.4651 133.044 91.9997C134.817 92.5343 136.695 92.6219 138.511 92.2545C140.327 91.8871 142.023 91.0763 143.45 89.8942C144.876 88.7121 145.988 87.1956 146.686 85.4797Z" fill="#3B4EF2" fill-opacity="0.9"/>
<path d="M124.013 87.1784C124.174 87.2949 124.347 87.3933 124.53 87.4717C126.495 91.4465 130.567 94.4885 135.239 94.7437V113.591C131.705 113.38 128.874 111.599 126.495 108.821C126.29 108.977 126.137 109.117 125.996 109.249C125.799 109.436 125.661 109.678 125.6 109.943C125.539 110.208 125.557 110.485 125.653 110.74C125.782 111.09 125.816 111.469 125.75 111.837C125.685 112.204 125.522 112.548 125.28 112.833C125.038 113.117 124.725 113.332 124.372 113.455C124.019 113.579 123.64 113.606 123.273 113.534C122.907 113.463 122.566 113.295 122.285 113.048C122.005 112.802 121.795 112.485 121.677 112.13C121.56 111.775 121.539 111.396 121.616 111.03C121.694 110.665 121.867 110.327 122.118 110.05C122.194 109.967 122.276 109.891 122.365 109.821C122.416 109.775 122.472 109.735 122.532 109.701C122.855 108.534 123.62 107.481 124.864 106.515C123.464 104.123 122.608 101.452 122.356 98.692C122.175 98.6937 121.993 98.7055 121.813 98.7272C121.569 98.7601 121.338 98.8595 121.146 99.0147C120.954 99.1699 120.808 99.3749 120.725 99.6073C120.59 99.9675 120.358 100.284 120.056 100.522C119.753 100.76 119.392 100.911 119.01 100.958C118.628 101.006 118.24 100.947 117.889 100.79C117.537 100.633 117.236 100.382 117.017 100.066C116.798 99.7493 116.669 99.3789 116.646 98.9947C116.622 98.6105 116.704 98.2272 116.882 97.8863C117.061 97.5453 117.33 97.2598 117.659 97.0605C117.988 96.8613 118.366 96.756 118.751 96.756C118.836 96.7575 118.921 96.7633 119.006 96.7736C119.321 96.5469 119.671 96.3725 120.041 96.2573C120.765 96.0308 121.518 95.9093 122.277 95.8965C122.352 93.9396 122.721 92.0052 123.374 90.1587C122.9 89.8893 122.453 89.575 122.039 89.22C121.636 88.8598 121.305 88.4257 121.065 87.9411C120.938 87.6962 120.744 87.4926 120.505 87.3544C120.321 87.2439 120.153 87.1086 120.006 86.9525C119.746 86.6714 119.566 86.3244 119.488 85.949C119.41 85.5736 119.436 85.184 119.563 84.8222C119.69 84.4605 119.914 84.1402 120.21 83.8961C120.505 83.652 120.862 83.4932 121.241 83.4369C121.62 83.3806 122.008 83.4289 122.362 83.5766C122.716 83.7243 123.022 83.9658 123.249 84.275C123.476 84.5843 123.614 84.9495 123.648 85.3314C123.683 85.7133 123.612 86.0973 123.444 86.4421C123.576 86.7275 123.77 86.9793 124.013 87.1784Z" fill="#3B4EF2" fill-opacity="0.9"/>
<path d="M199.765 218.604C199.595 218.334 199.38 218.095 199.129 217.897C197.847 216.686 197.251 214.908 196.934 213.166C196.618 211.423 196.527 209.645 196.019 207.941C195.743 207.067 195.398 206.217 194.987 205.398C194.693 204.77 194.324 203.541 193.787 203.101C193.682 203.01 193.554 202.948 193.417 202.922C193.164 202.383 192.802 201.902 192.355 201.508C191.516 200.748 190.493 200.144 189.932 199.161C189.778 198.821 189.589 198.497 189.366 198.196C188.988 197.78 188.389 197.61 188.04 197.17C187.586 196.601 187.688 195.785 187.747 195.06C187.806 194.336 187.747 193.468 187.119 193.086C186.744 192.855 186.26 192.878 185.87 192.673C185.283 192.379 185.051 191.64 185.063 190.98C185.075 190.32 185.28 189.678 185.333 189.018C185.497 186.917 184.113 184.829 184.646 182.793C184.849 182.021 185.312 181.353 185.656 180.634C185.775 180.395 185.873 180.145 185.949 179.889C186.864 180.252 187.826 180.484 188.806 180.578C187.19 176.953 187.6 172.74 186.846 168.845L186.943 168.713C187.705 167.708 188.137 166.493 188.181 165.234C188.181 163.784 187.504 162.429 187.198 161.009C186.937 159.804 186.949 158.542 186.612 157.357C186.378 156.621 186.067 155.911 185.685 155.239C185.319 154.561 184.935 153.893 184.532 153.236C184.157 151.992 183.78 150.748 183.403 149.505C182.875 147.759 182.332 145.985 181.305 144.477C180.93 143.925 180.815 142.805 180.238 142.47C179.768 142.227 179.236 142.134 178.712 142.203C177.897 141.746 177.181 141.086 177.078 140.182C177.068 139.985 177.088 139.787 177.137 139.596H177.237C178.527 139.478 179.181 138.34 179.853 137.343C180.939 135.729 180.525 133.547 179.853 131.711C179.687 131.131 179.385 130.599 178.973 130.159C178.032 129.279 176.541 129.472 175.327 129.047C174.919 128.906 174.538 128.692 174.121 128.592C173.315 128.405 172.47 128.669 171.731 129.041C170.991 129.414 170.302 129.895 169.528 130.188C168.753 130.481 167.797 130.713 167.606 131.508C167.553 131.776 167.575 132.053 167.671 132.309C167.849 132.819 168.162 133.271 168.577 133.617C168.247 134.297 168.069 135.04 168.054 135.796C168.04 136.551 168.189 137.301 168.492 137.993C168.795 138.685 169.245 139.303 169.81 139.805C170.375 140.306 171.043 140.679 171.766 140.898C171.989 141.256 172.197 141.62 172.388 141.992C172.728 142.649 173.015 143.424 172.898 144.128C172.686 144.353 172.49 144.593 172.311 144.846C171.47 146.02 170.991 147.395 170.551 148.768C169.96 150.521 169.487 152.312 169.135 154.128C168.419 155.65 167.545 157.105 167.025 158.704C166.096 158.705 165.17 158.581 164.274 158.334L161.798 157.774C160.936 157.577 160.038 157.366 159.363 156.797C159.005 156.504 158.727 156.114 158.363 155.823C157.999 155.533 157.269 155.192 156.87 155.433C156.797 155.477 156.729 155.529 156.668 155.588C156.304 154.852 155.958 154.122 155.535 153.409C154.928 152.412 154.025 151.499 152.881 151.309C152.181 151.196 151.466 151.363 150.889 151.772C150.22 152.247 149.8 153.239 150.302 153.908C150.427 154.056 150.564 154.196 150.71 154.324C151.049 154.715 151.353 155.137 151.616 155.583C152.562 156.91 153.976 157.828 155.573 158.152L155.471 158.446C155.262 159.056 154.819 159.792 154.931 160.426L165.943 164.195C166.649 164.482 167.399 164.647 168.161 164.685C168.458 164.683 168.753 164.643 169.041 164.568V165.131V165.154C169.07 169.024 168.454 172.866 168.34 176.733C168.319 177.439 168.34 178.199 168.785 178.751C169.284 179.355 170.17 179.475 170.942 179.337C171.127 179.306 171.309 179.265 171.487 179.214C171.748 180.187 171.936 181.179 172.05 182.18L172.778 187.419C172.871 187.955 172.91 188.5 172.892 189.044C172.807 190.273 172.159 191.373 171.69 192.508C171.22 193.644 170.942 195.002 171.558 196.064C171.751 196.392 172.018 196.671 172.191 197.011C172.411 197.538 172.511 198.107 172.484 198.677C172.529 200.258 172.573 201.84 172.614 203.424C172.486 203.403 172.354 203.429 172.244 203.497C171.634 203.972 171.701 206.234 171.657 206.935C171.61 208.108 171.657 209.305 171.593 210.49C171.516 212.087 171.26 213.671 170.827 215.21C170.721 215.71 170.49 216.176 170.155 216.562C169.812 216.861 169.403 217.073 168.961 217.181C167.5 217.639 165.972 217.847 164.441 217.797C163.822 217.777 163.177 217.718 162.602 217.953C162.027 218.188 161.563 218.833 161.772 219.42C161.951 219.912 162.493 220.147 162.983 220.332C164.102 220.726 165.182 221.223 166.21 221.816C166.605 222.086 167.022 222.322 167.457 222.523C167.873 222.673 168.303 222.779 168.741 222.84L173.942 223.738C175.007 223.919 176.289 224.031 176.967 223.151C177.333 222.676 177.386 222.03 177.369 221.426C177.339 220.253 177.105 219.059 177.257 217.885C177.373 217.192 177.556 216.511 177.803 215.852C178.321 214.313 178.841 212.775 179.363 211.238C179.885 209.695 180.413 208.138 180.616 206.518C180.689 205.932 180.683 205.263 180.235 204.896C180.121 204.803 179.989 204.735 179.847 204.697C179.83 203.283 179.645 201.866 179.724 200.452C179.745 200.1 179.78 199.748 179.809 199.393C180.081 199.651 180.324 199.939 180.534 200.25C181.035 201.036 181.22 202.074 181.986 202.596C182.637 203.042 183.602 203.019 184.06 203.664C184.207 203.912 184.317 204.18 184.388 204.459C184.654 205.151 185.053 205.784 185.562 206.322C185.736 206.966 185.979 207.589 186.286 208.182C186.718 209.095 187.149 210.005 187.577 210.913C188.017 211.892 188.507 212.849 189.044 213.779C189.454 214.364 189.784 215.001 190.026 215.674C190.44 217.123 189.765 218.713 188.697 219.78C187.63 220.848 186.222 221.461 184.834 222.033C184.688 222.083 184.554 222.163 184.441 222.268C184.321 222.41 184.257 222.592 184.262 222.778C184.262 223.456 184.819 224.037 185.459 224.245C186.113 224.421 186.798 224.446 187.462 224.318C191.211 223.864 194.949 222.948 198.263 221.127C198.759 220.892 199.198 220.553 199.551 220.132C199.721 219.921 199.831 219.667 199.869 219.398C199.907 219.129 199.871 218.854 199.765 218.604Z" fill="url(#paint0_linear_960_11259)"/>
<path d="M183.922 152.822C184.548 153.782 185.135 154.766 185.682 155.773C186.066 156.439 186.378 157.144 186.612 157.876C186.953 159.049 186.944 160.302 187.199 161.499C187.492 162.907 188.179 164.25 188.179 165.694C188.134 166.944 187.701 168.15 186.941 169.143C186.183 170.128 185.315 171.024 184.354 171.813C182.138 166.074 180.901 160.005 180.693 153.857C180.663 153.007 180.658 152.129 180.968 151.334C181.159 150.836 182.074 149.469 182.664 150.006C182.878 150.202 182.934 151.088 183.066 151.384C183.313 151.885 183.599 152.366 183.922 152.822Z" fill="#2F2E41"/>
<path opacity="0.1" d="M183.922 152.822C184.548 153.782 185.135 154.766 185.682 155.773C186.066 156.439 186.378 157.144 186.612 157.876C186.953 159.049 186.944 160.302 187.199 161.499C187.492 162.907 188.179 164.25 188.179 165.694C188.134 166.944 187.701 168.15 186.941 169.143C186.183 170.128 185.315 171.024 184.354 171.813C182.138 166.074 180.901 160.005 180.693 153.857C180.663 153.007 180.658 152.129 180.968 151.334C181.159 150.836 182.074 149.469 182.664 150.006C182.878 150.202 182.934 151.088 183.066 151.384C183.313 151.885 183.599 152.366 183.922 152.822Z" fill="black"/>
<path d="M106.585 112.801C104.265 115.119 103.986 116.139 102.593 116.6C101.199 117.06 96.1862 119.657 97.7614 122.534L101.997 125.333L102.12 125.415L102.769 127.363L96.3622 138.768C96.3622 138.768 85.8019 133.939 84.7664 141.082C83.7309 148.225 84.388 150.176 84.1093 153.989C83.8307 157.803 84.2003 158.906 83.2704 158.906C82.3405 158.906 81.9738 156.4 81.9738 156.4C81.9738 156.4 81.9151 156.286 81.8125 156.072C80.4308 153.2 71.0527 132.118 86.0747 117.627C86.0747 117.627 93.0328 117.169 94.7078 109.19C95.8635 103.675 99.9058 104.15 102.593 105.274C103.466 105.616 104.28 106.095 105.004 106.691C105.656 107.308 106.235 107.997 106.732 108.744C107.497 109.953 107.914 111.469 106.585 112.801Z" fill="#D0D2D5"/>
<path opacity="0.1" d="M102.121 125.415L102.769 127.363L96.3623 138.768C96.3623 138.768 85.802 133.94 84.7665 141.082C83.731 148.225 84.3881 150.176 84.1094 153.989C83.8307 157.803 84.2004 158.906 83.2705 158.906C82.3406 158.906 81.9739 156.401 81.9739 156.401C81.9739 156.401 81.9152 156.286 81.8126 156.072C81.3461 152.505 78.9818 131.64 87.5532 132.749C87.5532 132.749 94.5084 135.999 95.6201 134.702C96.5002 133.676 100.407 127.771 101.997 125.348L102.121 125.415Z" fill="black"/>
<path opacity="0.1" d="M106.732 108.727L102.496 113.541C102.496 113.541 97.5767 120.123 96.5559 119.845C96.2503 119.778 95.9388 119.742 95.626 119.736C95.2855 119.71 94.9593 119.588 94.6853 119.384C94.4113 119.18 94.2007 118.903 94.0779 118.584C93.9551 118.266 93.9251 117.919 93.9914 117.584C94.0578 117.248 94.2177 116.939 94.4526 116.691C96.1306 114.931 99.2224 111.59 99.4248 110.848C99.6272 110.106 101.595 106.853 102.581 105.26C103.454 105.602 104.268 106.08 104.992 106.677C105.648 107.292 106.232 107.98 106.732 108.727Z" fill="black"/>
<path d="M226.58 177.982C225.861 179.419 222.179 184.811 220.569 187.166L219.815 188.275C219.815 188.275 219.522 190.223 214.714 187.809C209.906 185.394 96.9434 137.729 96.9434 137.729L96.1777 135.43L101.751 127.084L225.562 174.919C225.562 174.919 227.509 176.125 226.58 177.982Z" fill="#454B69"/>
<path opacity="0.1" d="M220.569 187.166L219.815 188.275C219.815 188.275 219.522 190.223 214.714 187.809C209.906 185.394 96.9434 137.729 96.9434 137.729L96.1777 135.43L220.569 187.166Z" fill="black"/>
<path d="M152.431 156.031C151.284 155.843 150.011 155.934 149.12 156.679C148.581 157.136 148.24 157.784 148.169 158.486C148.093 159.299 148.565 160.264 149.381 160.326C149.577 160.328 149.773 160.315 149.967 160.288C150.483 160.285 150.997 160.329 151.504 160.417C152.503 160.511 153.511 160.364 154.441 159.988C155.371 159.612 156.198 159.019 156.852 158.258C157.553 157.378 156.629 156.996 155.802 156.82C154.67 156.58 153.564 156.213 152.431 156.031Z" fill="#FBBEBE"/>
<path d="M172.051 182.523L172.778 187.692C172.871 188.225 172.908 188.767 172.89 189.308C172.805 190.526 172.156 191.617 171.69 192.743C171.224 193.87 170.939 195.219 171.558 196.263C171.749 196.589 172.016 196.868 172.189 197.205C172.409 197.727 172.509 198.291 172.482 198.856L172.681 206.19C174.946 206.344 177.219 206.332 179.481 206.152C179.57 206.156 179.657 206.129 179.727 206.076C179.787 206 179.817 205.905 179.813 205.809C179.912 204.093 179.613 202.374 179.71 200.658C179.745 200.03 179.833 199.405 179.845 198.774C179.88 196.219 178.619 193.717 179 191.191C179.12 190.554 179.276 189.924 179.469 189.305C180.675 184.905 180.42 180.282 180.153 175.738C180.157 175.665 180.137 175.593 180.094 175.533C180.051 175.49 179.996 175.46 179.936 175.448C178.652 175.063 177.295 174.992 175.979 175.242C174.663 175.493 173.426 176.056 172.373 176.885C172.054 177.143 171.247 177.393 171.036 177.701C170.742 178.129 171.127 178.557 171.297 179.012C171.674 180.152 171.926 181.329 172.051 182.523Z" fill="#3F3D56"/>
<path opacity="0.1" d="M172.051 182.523L172.778 187.692C172.871 188.225 172.908 188.767 172.89 189.308C172.805 190.526 172.156 191.617 171.69 192.743C171.224 193.87 170.939 195.219 171.558 196.263C171.749 196.589 172.016 196.868 172.189 197.205C172.409 197.727 172.509 198.291 172.482 198.856L172.681 206.19C174.946 206.344 177.219 206.332 179.481 206.152C179.57 206.156 179.657 206.129 179.727 206.076C179.787 206 179.817 205.905 179.813 205.809C179.912 204.093 179.613 202.374 179.71 200.658C179.745 200.03 179.833 199.405 179.845 198.774C179.88 196.219 178.619 193.717 179 191.191C179.12 190.554 179.276 189.924 179.469 189.305C180.675 184.905 180.42 180.282 180.153 175.738C180.157 175.665 180.137 175.593 180.094 175.533C180.051 175.49 179.996 175.46 179.936 175.448C178.652 175.063 177.295 174.992 175.979 175.242C174.663 175.493 173.426 176.056 172.373 176.885C172.054 177.143 171.247 177.393 171.036 177.701C170.742 178.129 171.127 178.557 171.297 179.012C171.674 180.152 171.926 181.329 172.051 182.523Z" fill="black"/>
<path d="M185.653 180.965C185.31 181.678 184.849 182.341 184.644 183.106C184.11 185.127 185.492 187.213 185.328 189.284C185.275 189.938 185.072 190.575 185.058 191.229C185.043 191.883 185.284 192.611 185.864 192.913C186.254 193.112 186.744 193.092 187.111 193.32C187.73 193.699 187.8 194.558 187.739 195.28C187.677 196.002 187.575 196.808 188.032 197.372C188.381 197.809 188.98 197.979 189.355 198.392C189.578 198.689 189.768 199.01 189.921 199.349C190.482 200.328 191.505 200.927 192.344 201.695C193.183 202.464 193.893 203.59 193.518 204.655C193.242 205.435 192.467 205.917 191.722 206.283C190.363 206.955 188.928 207.462 187.448 207.794C187.29 207.842 187.122 207.851 186.958 207.82C186.793 207.76 186.646 207.659 186.53 207.527C185.665 206.679 184.77 205.79 184.371 204.649C184.3 204.373 184.19 204.108 184.043 203.863C183.585 203.221 182.62 203.244 181.969 202.801C181.206 202.282 181.021 201.252 180.523 200.475C180.024 199.698 179.293 199.234 178.763 198.551C177.865 197.413 177.645 195.893 177.002 194.594C176.73 194.042 176.381 193.526 176.164 192.951C175.944 192.262 175.81 191.549 175.762 190.827C175.348 187.401 174.295 183.951 174.958 180.56C175.105 179.815 175.33 179.093 175.424 178.325C175.586 176.996 175.33 175.635 175.527 174.309C175.532 174.143 175.574 173.979 175.651 173.832C175.728 173.684 175.837 173.555 175.97 173.455C176.128 173.384 176.301 173.349 176.474 173.353C178.213 173.26 179.957 173.299 181.69 173.47C182.57 173.555 183.556 173.734 184.084 174.453C184.533 175.069 184.509 175.893 184.653 176.641C184.832 177.562 185.298 178.064 185.788 178.785C186.278 179.507 186.014 180.22 185.653 180.965Z" fill="#3F3D56"/>
<path d="M178.885 204.802C179.348 204.802 179.862 204.772 180.22 205.066C180.666 205.432 180.671 206.104 180.601 206.676C180.396 208.284 179.871 209.83 179.346 211.37L177.785 215.949C177.538 216.602 177.355 217.278 177.239 217.967C177.087 219.14 177.321 220.314 177.351 221.487C177.351 222.074 177.313 222.725 176.946 223.197C176.283 224.051 174.989 223.951 173.925 223.784L168.73 222.904C168.291 222.845 167.86 222.74 167.445 222.59C167.011 222.39 166.594 222.155 166.198 221.889C165.17 221.301 164.09 220.81 162.971 220.422C162.484 220.24 161.939 220.008 161.763 219.519C161.554 218.932 162.018 218.287 162.593 218.052C163.168 217.817 163.81 217.876 164.432 217.893C165.961 217.942 167.488 217.736 168.95 217.283C169.39 217.175 169.798 216.964 170.14 216.667C170.488 216.276 170.725 215.799 170.827 215.286C171.27 213.757 171.533 212.182 171.613 210.592C171.675 209.419 171.634 208.245 171.681 207.072C171.71 206.377 171.642 204.139 172.253 203.661C172.719 203.303 174.637 204.291 175.268 204.435C176.454 204.707 177.669 204.83 178.885 204.802Z" fill="#2F2E41"/>
<path d="M195.999 208.064C196.506 209.745 196.585 211.523 196.914 213.25C197.243 214.978 197.823 216.741 199.105 217.944C199.355 218.142 199.57 218.38 199.742 218.648C199.85 218.899 199.887 219.175 199.848 219.446C199.809 219.717 199.696 219.971 199.522 220.182C199.168 220.599 198.729 220.936 198.234 221.171C194.922 222.978 191.194 223.89 187.436 224.342C186.772 224.466 186.089 224.441 185.436 224.268C184.796 224.051 184.23 223.476 184.242 222.802C184.235 222.616 184.298 222.436 184.418 222.294C184.532 222.19 184.667 222.111 184.814 222.062C186.198 221.493 187.603 220.874 188.674 219.824C189.745 218.774 190.416 217.184 190.003 215.758C189.758 215.091 189.425 214.458 189.014 213.878C188.478 212.956 187.988 212.007 187.548 211.036L186.257 208.328C185.878 207.536 185.497 206.721 185.433 205.846C187.054 205.919 188.673 205.659 190.191 205.084C190.899 204.795 191.559 204.399 192.147 203.91C192.646 203.494 193.101 202.716 193.772 203.259C194.312 203.693 194.652 204.917 194.969 205.535C195.381 206.349 195.725 207.195 195.999 208.064Z" fill="#2F2E41"/>
<path d="M177.084 140.834C177.213 141.96 178.304 142.702 179.346 143.148L172.754 145.251C173.18 144.436 172.836 143.438 172.414 142.611C172.07 141.956 171.678 141.328 171.241 140.731C171.176 140.64 171.103 140.526 171.15 140.42C171.192 140.351 171.257 140.3 171.334 140.276C172.69 139.672 174.086 139.047 175.567 138.827C175.996 138.765 176.805 138.595 177.125 139.029C177.445 139.464 177.022 140.314 177.084 140.834Z" fill="#FBBEBE"/>
<path opacity="0.1" d="M177.084 140.834C177.213 141.96 178.304 142.702 179.346 143.148L172.754 145.251C173.18 144.436 172.836 143.438 172.414 142.611C172.07 141.956 171.678 141.328 171.241 140.731C171.176 140.64 171.103 140.526 171.15 140.42C171.192 140.351 171.257 140.3 171.334 140.276C172.69 139.672 174.086 139.047 175.567 138.827C175.996 138.765 176.805 138.595 177.125 139.029C177.445 139.464 177.022 140.314 177.084 140.834Z" fill="black"/>
<path d="M173.254 141.746C176.108 141.746 178.422 139.431 178.422 136.577C178.422 133.722 176.108 131.408 173.254 131.408C170.399 131.408 168.085 133.722 168.085 136.577C168.085 139.431 170.399 141.746 173.254 141.746Z" fill="#FBBEBE"/>
<path d="M168.773 179.111C169.275 179.713 170.158 179.83 170.929 179.698C172.733 179.405 174.209 178.076 175.975 177.598C178.14 177.011 180.431 177.765 182.475 178.689C184.52 179.613 186.553 180.742 188.788 180.901C186.767 176.395 187.923 170.974 185.99 166.43C185.517 165.318 184.857 164.248 184.752 163.045C184.62 161.552 185.365 160.112 185.479 158.627C185.585 157.304 185.186 155.987 184.804 154.726C184.333 153.177 183.862 151.628 183.391 150.079C182.863 148.346 182.32 146.583 181.296 145.093C180.918 144.544 180.803 143.432 180.228 143.101C178.973 142.376 177.069 143.289 175.708 143.338C174.347 143.388 173.106 144.356 172.311 145.45C171.469 146.606 170.991 147.982 170.551 149.343C169.85 151.37 169.327 153.453 168.987 155.571C168.943 155.888 168.905 156.204 168.876 156.524C168.583 159.537 169.011 162.567 169.034 165.594V165.615C169.064 169.455 168.448 173.271 168.333 177.108C168.322 177.809 168.339 178.575 168.773 179.111Z" fill="#2F2E41"/>
<path opacity="0.1" d="M169.044 165.597C170.056 165.342 170.971 164.688 171.757 163.972C172.438 163.363 173.043 162.673 173.558 161.919C174.207 160.904 174.728 159.813 175.11 158.671C176.196 155.617 176.886 152.435 177.163 149.205C177.24 148.325 177.263 147.381 176.738 146.682C176.443 146.304 176.029 146.037 175.563 145.924C175.097 145.811 174.607 145.859 174.171 146.061C173.479 146.398 173.03 147.081 172.614 147.735C171.789 149.032 170.959 150.346 170.428 151.789C170.194 152.429 170.021 153.086 169.792 153.728C169.559 154.362 169.291 154.982 168.988 155.585C168.944 155.902 168.906 156.219 168.876 156.539C168.604 159.551 169.02 162.57 169.044 165.597Z" fill="black"/>
<path d="M176.723 146.116C177.248 146.814 177.225 147.768 177.151 148.636C176.875 151.866 176.185 155.047 175.098 158.102C174.72 159.254 174.198 160.354 173.546 161.376C173.03 162.129 172.425 162.819 171.745 163.429C170.748 164.338 169.533 165.151 168.181 165.163C167.42 165.127 166.67 164.963 165.963 164.679L154.948 160.93C154.837 160.302 155.28 159.569 155.488 158.964L156.075 157.225C156.242 156.744 156.436 156.225 156.873 155.963C157.31 155.702 158.002 156.06 158.366 156.351C158.73 156.641 159.005 157.022 159.363 157.319C160.041 157.882 160.935 158.093 161.798 158.287L164.271 158.841C165.167 159.087 166.093 159.21 167.022 159.208C167.712 157.102 169.023 155.248 169.765 153.159C169.994 152.52 170.167 151.86 170.405 151.22C170.933 149.777 171.766 148.466 172.59 147.166C173.004 146.515 173.452 145.831 174.148 145.491C174.584 145.287 175.077 145.238 175.545 145.352C176.013 145.465 176.429 145.735 176.723 146.116Z" fill="#2F2E41"/>
<path d="M174.902 137.744C174.863 137.404 174.757 137.075 174.591 136.776C174.504 136.626 174.373 136.508 174.214 136.438C174.056 136.369 173.88 136.351 173.711 136.389C173.195 136.55 173.022 137.348 172.482 137.374C172.118 137.392 171.857 137.022 171.743 136.676C171.628 136.33 171.567 135.934 171.294 135.691C171.104 135.549 170.886 135.449 170.654 135.397C169.402 135.001 168.108 134.271 167.692 133.024C167.593 132.771 167.57 132.495 167.624 132.229C167.815 131.44 168.797 131.203 169.545 130.918C170.293 130.633 171.012 130.146 171.745 129.777C172.479 129.407 173.33 129.146 174.136 129.334C174.546 129.463 174.948 129.612 175.342 129.783C176.556 130.205 178.044 130.009 178.985 130.886C179.397 131.321 179.698 131.848 179.865 132.423C180.522 134.247 180.939 136.412 179.851 138.014C179.179 139.002 178.528 140.132 177.237 140.252C175.735 140.378 175.139 139.017 174.902 137.744Z" fill="#2F2E41"/>
<g opacity="0.1">
<path d="M172.608 136.055C172.493 135.709 172.432 135.313 172.162 135.069C171.972 134.927 171.754 134.827 171.523 134.776C170.267 134.38 168.976 133.65 168.557 132.403C168.461 132.149 168.439 131.874 168.492 131.608C168.521 131.483 168.574 131.364 168.648 131.259C168.17 131.467 167.753 131.743 167.636 132.23C167.582 132.496 167.605 132.772 167.703 133.025C168.12 134.271 169.413 135.002 170.666 135.398C170.898 135.449 171.116 135.549 171.305 135.691C171.578 135.935 171.637 136.328 171.754 136.677C171.872 137.026 172.13 137.393 172.493 137.375C172.857 137.357 173.033 137.026 173.265 136.747C172.945 136.706 172.714 136.378 172.608 136.055Z" fill="black"/>
<path d="M178.099 139.621C176.591 139.759 175.996 138.387 175.752 137.122C175.72 136.783 175.62 136.454 175.459 136.154C175.372 136.005 175.24 135.887 175.082 135.817C174.924 135.748 174.748 135.73 174.579 135.767C174.311 135.897 174.086 136.1 173.931 136.354C174.065 136.367 174.195 136.41 174.31 136.482C174.425 136.553 174.522 136.65 174.594 136.764C174.76 137.063 174.865 137.392 174.905 137.732C175.142 138.997 175.738 140.372 177.251 140.232C177.85 140.166 178.402 139.879 178.8 139.428C178.579 139.531 178.342 139.597 178.099 139.621Z" fill="black"/>
</g>
<path d="M238.519 194.189C243.75 194.189 247.991 193.374 247.991 192.368C247.991 191.361 243.75 190.546 238.519 190.546C233.288 190.546 229.047 191.361 229.047 192.368C229.047 193.374 233.288 194.189 238.519 194.189Z" fill="#3B4EF2" fill-opacity="0.9"/>
<path d="M238.36 193.036C238.969 193.036 239.463 192.39 239.463 191.593C239.463 190.796 238.969 190.149 238.36 190.149C237.751 190.149 237.257 190.796 237.257 191.593C237.257 192.39 237.751 193.036 238.36 193.036Z" fill="#3F3D56"/>
<path d="M238.36 191.27C238.969 191.27 239.463 190.624 239.463 189.827C239.463 189.03 238.969 188.384 238.36 188.384C237.751 188.384 237.257 189.03 237.257 189.827C237.257 190.624 237.751 191.27 238.36 191.27Z" fill="#3F3D56"/>
<path d="M238.36 189.508C238.969 189.508 239.463 188.861 239.463 188.064C239.463 187.267 238.969 186.621 238.36 186.621C237.751 186.621 237.257 187.267 237.257 188.064C237.257 188.861 237.751 189.508 238.36 189.508Z" fill="#3F3D56"/>
<path d="M238.36 187.741C238.969 187.741 239.463 187.095 239.463 186.298C239.463 185.501 238.969 184.854 238.36 184.854C237.751 184.854 237.257 185.501 237.257 186.298C237.257 187.095 237.751 187.741 238.36 187.741Z" fill="#3F3D56"/>
<path d="M238.36 185.975C238.969 185.975 239.463 185.329 239.463 184.532C239.463 183.735 238.969 183.089 238.36 183.089C237.751 183.089 237.257 183.735 237.257 184.532C237.257 185.329 237.751 185.975 238.36 185.975Z" fill="#3F3D56"/>
<path d="M238.36 184.213C238.969 184.213 239.463 183.566 239.463 182.769C239.463 181.972 238.969 181.326 238.36 181.326C237.751 181.326 237.257 181.972 237.257 182.769C237.257 183.566 237.751 184.213 238.36 184.213Z" fill="#3F3D56"/>
<path d="M238.36 182.446C238.969 182.446 239.463 181.8 239.463 181.003C239.463 180.206 238.969 179.56 238.36 179.56C237.751 179.56 237.257 180.206 237.257 181.003C237.257 181.8 237.751 182.446 238.36 182.446Z" fill="#3F3D56"/>
<path d="M242.488 168.938C242.638 168.746 242.775 168.544 242.898 168.334L240 167.859L243.136 167.879C243.435 167.225 243.598 166.516 243.615 165.796C243.633 165.077 243.503 164.361 243.236 163.693L239.029 165.876L242.907 163.024C242.543 162.398 242.054 161.853 241.471 161.424C240.887 160.994 240.222 160.69 239.515 160.529C238.809 160.368 238.077 160.354 237.365 160.487C236.654 160.621 235.977 160.9 235.377 161.307C234.778 161.714 234.268 162.239 233.881 162.851C233.493 163.463 233.236 164.148 233.124 164.864C233.013 165.58 233.05 166.311 233.233 167.012C233.416 167.713 233.741 168.368 234.189 168.938C233.953 169.236 233.751 169.559 233.585 169.9L237.348 171.857L233.335 170.51C233.055 171.342 232.986 172.23 233.135 173.094C233.284 173.959 233.646 174.773 234.189 175.462C233.577 176.241 233.197 177.176 233.091 178.161C232.986 179.146 233.159 180.141 233.592 181.032C234.025 181.923 234.7 182.674 235.54 183.2C236.38 183.725 237.351 184.004 238.341 184.004C239.332 184.004 240.302 183.725 241.142 183.2C241.982 182.674 242.657 181.923 243.09 181.032C243.523 180.141 243.697 179.146 243.591 178.161C243.486 177.176 243.105 176.241 242.493 175.462C243.226 174.531 243.625 173.381 243.625 172.196C243.625 171.011 243.226 169.86 242.493 168.929L242.488 168.938Z" fill="#3B4EF2" fill-opacity="0.9"/>
<path opacity="0.1" d="M233.051 172.194C233.05 173.381 233.451 174.532 234.189 175.462C233.577 176.241 233.197 177.176 233.091 178.161C232.986 179.146 233.159 180.141 233.592 181.032C234.025 181.923 234.7 182.674 235.54 183.199C236.38 183.725 237.351 184.004 238.341 184.004C239.332 184.004 240.302 183.725 241.142 183.199C241.982 182.674 242.657 181.923 243.09 181.032C243.523 180.141 243.697 179.146 243.591 178.161C243.486 177.176 243.105 176.241 242.493 175.462C243.195 174.561 233.051 171.601 233.051 172.194Z" fill="black"/>
<path d="M43.5378 230.511C51.0696 230.511 57.1752 229.336 57.1752 227.888C57.1752 226.44 51.0696 225.266 43.5378 225.266C36.0061 225.266 29.9004 226.44 29.9004 227.888C29.9004 229.336 36.0061 230.511 43.5378 230.511Z" fill="#3B4EF2" fill-opacity="0.9"/>
<path d="M43.3087 228.853C44.1851 228.853 44.8956 227.922 44.8956 226.773C44.8956 225.625 44.1851 224.693 43.3087 224.693C42.4322 224.693 41.7217 225.625 41.7217 226.773C41.7217 227.922 42.4322 228.853 43.3087 228.853Z" fill="#3F3D56"/>
<path d="M43.3087 226.313C44.1851 226.313 44.8956 225.382 44.8956 224.233C44.8956 223.084 44.1851 222.153 43.3087 222.153C42.4322 222.153 41.7217 223.084 41.7217 224.233C41.7217 225.382 42.4322 226.313 43.3087 226.313Z" fill="#3F3D56"/>
<path d="M43.3087 223.772C44.1851 223.772 44.8956 222.841 44.8956 221.692C44.8956 220.543 44.1851 219.612 43.3087 219.612C42.4322 219.612 41.7217 220.543 41.7217 221.692C41.7217 222.841 42.4322 223.772 43.3087 223.772Z" fill="#3F3D56"/>
<path d="M43.3087 221.232C44.1851 221.232 44.8956 220.301 44.8956 219.152C44.8956 218.003 44.1851 217.072 43.3087 217.072C42.4322 217.072 41.7217 218.003 41.7217 219.152C41.7217 220.301 42.4322 221.232 43.3087 221.232Z" fill="#3F3D56"/>
<path d="M43.3087 218.692C44.1851 218.692 44.8956 217.761 44.8956 216.612C44.8956 215.463 44.1851 214.532 43.3087 214.532C42.4322 214.532 41.7217 215.463 41.7217 216.612C41.7217 217.761 42.4322 218.692 43.3087 218.692Z" fill="#3F3D56"/>
<path d="M43.3087 216.149C44.1851 216.149 44.8956 215.218 44.8956 214.069C44.8956 212.92 44.1851 211.989 43.3087 211.989C42.4322 211.989 41.7217 212.92 41.7217 214.069C41.7217 215.218 42.4322 216.149 43.3087 216.149Z" fill="#3F3D56"/>
<path d="M43.3087 213.608C44.1851 213.608 44.8956 212.677 44.8956 211.528C44.8956 210.379 44.1851 209.448 43.3087 209.448C42.4322 209.448 41.7217 210.379 41.7217 211.528C41.7217 212.677 42.4322 213.608 43.3087 213.608Z" fill="#3F3D56"/>
<path d="M49.2524 194.145C49.4672 193.865 49.6631 193.571 49.839 193.265L45.6677 192.579L50.1793 192.614C50.6117 191.672 50.8475 190.651 50.8722 189.615C50.8969 188.578 50.7101 187.548 50.3231 186.586L44.2744 189.736L49.8478 185.629C49.3259 184.724 48.623 183.936 47.7829 183.314C46.9428 182.692 45.9835 182.25 44.965 182.015C43.9464 181.781 42.8905 181.759 41.863 181.95C40.8355 182.142 39.8586 182.543 38.9931 183.129C38.1276 183.715 37.3922 184.473 36.8328 185.356C36.2733 186.239 35.9018 187.228 35.7414 188.261C35.5811 189.293 35.6353 190.348 35.9007 191.359C36.1661 192.37 36.637 193.315 37.284 194.136C36.9415 194.565 36.6464 195.029 36.404 195.521L41.822 198.337L36.0461 196.398C35.6413 197.6 35.5436 198.884 35.7619 200.134C35.9801 201.384 36.5074 202.559 37.2958 203.553C36.4132 204.675 35.8642 206.022 35.7114 207.441C35.5587 208.861 35.8084 210.294 36.432 211.578C37.0557 212.862 38.028 213.945 39.238 214.703C40.4479 215.46 41.8466 215.862 43.2741 215.862C44.7016 215.862 46.1002 215.46 47.3102 214.703C48.5201 213.945 49.4925 212.862 50.1161 211.578C50.7398 210.294 50.9895 208.861 50.8367 207.441C50.684 206.022 50.1349 204.675 49.2524 203.553C50.3072 202.212 50.8808 200.556 50.8808 198.85C50.8808 197.145 50.3072 195.488 49.2524 194.148V194.145Z" fill="#3B4EF2" fill-opacity="0.9"/>
<path opacity="0.1" d="M35.667 198.859C35.6673 200.562 36.2407 202.215 37.295 203.553C36.4125 204.675 35.8634 206.022 35.7107 207.441C35.5579 208.861 35.8076 210.294 36.4313 211.578C37.0549 212.862 38.0273 213.945 39.2372 214.703C40.4472 215.46 41.8459 215.862 43.2733 215.862C44.7008 215.862 46.0995 215.46 47.3094 214.703C48.5194 213.945 49.4918 212.862 50.1154 211.578C50.739 210.294 50.9887 208.861 50.836 207.441C50.6832 206.022 50.1342 204.675 49.2516 203.553C50.2637 202.256 35.667 197.994 35.667 198.859Z" fill="black"/>
<defs>
<linearGradient id="paint0_linear_960_11259" x1="176.557" y1="224.801" x2="172.674" y2="128.549" gradientUnits="userSpaceOnUse">
<stop stop-color="#808080" stop-opacity="0.25"/>
<stop offset="0.54" stop-color="#808080" stop-opacity="0.12"/>
<stop offset="1" stop-color="#808080" stop-opacity="0.1"/>
</linearGradient>
</defs>
</svg>
