<svg width="243" height="253" viewBox="0 0 243 253" fill="none" xmlns="http://www.w3.org/2000/svg">
<rect width="170.398" height="104.861" transform="matrix(0.866025 0.5 -0.866025 0.5 90.812 111.372)" fill="#0D0D0D"/>
<rect width="59.7705" height="31.9825" rx="1.69" transform="matrix(0.866025 0.5 -0.866025 0.5 80.1416 172.847)" fill="#242424"/>
<rect width="10.4861" height="7.86454" rx="1.69" transform="matrix(0.866025 0.5 -0.866025 0.5 77.6445 126.839)" fill="#242424"/>
<rect width="10.4861" height="7.86454" rx="1.69" transform="matrix(0.866025 0.5 -0.866025 0.5 86.7256 121.596)" fill="#242424"/>
<rect width="10.4861" height="7.86454" rx="1.69" transform="matrix(0.866025 0.5 -0.866025 0.5 123.05 153.054)" fill="#242424"/>
<rect width="10.4861" height="7.86454" rx="1.69" transform="matrix(0.866025 0.5 -0.866025 0.5 132.131 147.811)" fill="#242424"/>
<rect width="10.4861" height="7.86454" rx="1.69" transform="matrix(0.866025 0.5 -0.866025 0.5 168.456 179.269)" fill="#242424"/>
<rect width="10.4861" height="7.86454" rx="1.69" transform="matrix(0.866025 0.5 -0.866025 0.5 177.538 174.026)" fill="#242424"/>
<rect width="10.4861" height="7.86454" rx="1.69" transform="matrix(0.866025 0.5 -0.866025 0.5 59.4819 137.325)" fill="#242424"/>
<rect width="10.4861" height="7.86454" rx="1.69" transform="matrix(0.866025 0.5 -0.866025 0.5 104.888 163.54)" fill="#242424"/>
<rect width="10.4861" height="7.86454" rx="1.69" transform="matrix(0.866025 0.5 -0.866025 0.5 150.294 189.755)" fill="#242424"/>
<rect width="23.5936" height="7.86454" rx="1.69" transform="matrix(0.866025 0.5 -0.866025 0.5 68.5635 132.082)" fill="#242424"/>
<rect width="10.4861" height="7.86454" rx="1.69" transform="matrix(0.866025 0.5 -0.866025 0.5 113.969 158.297)" fill="#242424"/>
<rect width="10.4861" height="7.86454" rx="1.69" transform="matrix(0.866025 0.5 -0.866025 0.5 159.375 184.512)" fill="#242424"/>
<rect width="10.4861" height="7.86454" rx="1.69" transform="matrix(0.866025 0.5 -0.866025 0.5 50.4009 142.567)" fill="#242424"/>
<rect width="49.8088" height="7.86454" rx="1.69" transform="matrix(0.866025 0.5 -0.866025 0.5 95.8066 168.783)" fill="#242424"/>
<rect width="10.4861" height="7.86454" rx="1.69" transform="matrix(0.866025 0.5 -0.866025 0.5 141.213 194.998)" fill="#242424"/>
<rect width="10.4861" height="7.86454" rx="1.69" transform="matrix(0.866025 0.5 -0.866025 0.5 100.347 139.946)" fill="#242424"/>
<rect width="10.4861" height="7.86454" rx="1.69" transform="matrix(0.866025 0.5 -0.866025 0.5 109.429 134.703)" fill="#242424"/>
<rect width="10.4861" height="7.86454" rx="1.69" transform="matrix(0.866025 0.5 -0.866025 0.5 145.753 166.161)" fill="#242424"/>
<rect width="10.4861" height="7.86454" rx="1.69" transform="matrix(0.866025 0.5 -0.866025 0.5 154.834 160.919)" fill="#242424"/>
<rect width="10.4861" height="7.86454" rx="1.69" transform="matrix(0.866025 0.5 -0.866025 0.5 191.159 192.377)" fill="#242424"/>
<rect width="10.4861" height="7.86454" rx="1.69" transform="matrix(0.866025 0.5 -0.866025 0.5 200.24 187.134)" fill="#242424"/>
<rect width="10.4861" height="7.86454" rx="1.69" transform="matrix(0.866025 0.5 -0.866025 0.5 82.1851 150.433)" fill="#242424"/>
<rect width="10.4861" height="7.86454" rx="1.69" transform="matrix(0.866025 0.5 -0.866025 0.5 127.591 176.647)" fill="#242424"/>
<rect width="10.4861" height="7.86454" rx="1.69" transform="matrix(0.866025 0.5 -0.866025 0.5 172.997 202.863)" fill="#242424"/>
<rect width="10.4861" height="7.86454" rx="1.69" transform="matrix(0.866025 0.5 -0.866025 0.5 91.2661 145.189)" fill="#242424"/>
<rect width="10.4861" height="7.86454" rx="1.69" transform="matrix(0.866025 0.5 -0.866025 0.5 136.672 171.404)" fill="#242424"/>
<rect width="10.4861" height="7.86454" rx="1.69" transform="matrix(0.866025 0.5 -0.866025 0.5 73.1035 155.676)" fill="#242424"/>
<rect width="10.4861" height="7.86454" rx="1.69" transform="matrix(0.866025 0.5 -0.866025 0.5 163.916 208.105)" fill="#242424"/>
<rect width="10.4861" height="7.86454" rx="1.69" transform="matrix(0.866025 0.5 -0.866025 0.5 88.9961 133.393)" fill="#242424"/>
<rect width="10.4861" height="7.86454" rx="1.69" transform="matrix(0.866025 0.5 -0.866025 0.5 98.0771 128.149)" fill="#242424"/>
<rect width="10.4861" height="7.86454" rx="1.69" transform="matrix(0.866025 0.5 -0.866025 0.5 134.402 159.607)" fill="#242424"/>
<rect width="10.4861" height="7.86454" rx="1.69" transform="matrix(0.866025 0.5 -0.866025 0.5 143.483 154.364)" fill="#242424"/>
<rect width="10.4861" height="7.86454" rx="1.69" transform="matrix(0.866025 0.5 -0.866025 0.5 179.808 185.823)" fill="#242424"/>
<rect width="10.4861" height="7.86454" rx="1.69" transform="matrix(0.866025 0.5 -0.866025 0.5 188.889 180.58)" fill="#242424"/>
<rect width="10.4861" height="7.86454" rx="1.69" transform="matrix(0.866025 0.5 -0.866025 0.5 70.8335 143.879)" fill="#242424"/>
<rect width="10.4861" height="7.86454" rx="1.69" transform="matrix(0.866025 0.5 -0.866025 0.5 116.239 170.094)" fill="#242424"/>
<rect width="10.4861" height="7.86454" rx="1.69" transform="matrix(0.866025 0.5 -0.866025 0.5 161.646 196.309)" fill="#242424"/>
<rect width="10.4861" height="7.86454" rx="1.69" transform="matrix(0.866025 0.5 -0.866025 0.5 125.321 164.851)" fill="#242424"/>
<rect width="10.4861" height="7.86454" rx="1.69" transform="matrix(0.866025 0.5 -0.866025 0.5 170.727 191.065)" fill="#242424"/>
<rect width="10.4861" height="7.86454" rx="1.69" transform="matrix(0.866025 0.5 -0.866025 0.5 61.7524 149.122)" fill="#242424"/>
<rect width="10.4861" height="7.86454" rx="1.69" transform="matrix(0.866025 0.5 -0.866025 0.5 152.564 201.552)" fill="#242424"/>
<rect width="10.4861" height="7.86454" rx="1.69" transform="matrix(0.866025 0.5 -0.866025 0.5 111.699 146.5)" fill="#242424"/>
<rect width="10.4861" height="7.86454" rx="1.69" transform="matrix(0.866025 0.5 -0.866025 0.5 120.78 141.257)" fill="#242424"/>
<rect width="10.4861" height="7.86454" rx="1.69" transform="matrix(0.866025 0.5 -0.866025 0.5 157.105 172.715)" fill="#242424"/>
<rect width="10.4861" height="7.86454" rx="1.69" transform="matrix(0.866025 0.5 -0.866025 0.5 166.186 167.473)" fill="#242424"/>
<rect width="10.4861" height="7.86454" rx="1.69" transform="matrix(0.866025 0.5 -0.866025 0.5 202.511 198.931)" fill="#242424"/>
<rect width="10.4861" height="7.86454" rx="1.69" transform="matrix(0.866025 0.5 -0.866025 0.5 211.592 193.688)" fill="#242424"/>
<rect width="10.4861" height="7.86454" rx="1.69" transform="matrix(0.866025 0.5 -0.866025 0.5 93.5366 156.986)" fill="#242424"/>
<rect width="10.4861" height="7.86454" rx="1.69" transform="matrix(0.866025 0.5 -0.866025 0.5 138.942 183.201)" fill="#242424"/>
<rect width="10.4861" height="7.86454" rx="1.69" transform="matrix(0.866025 0.5 -0.866025 0.5 184.348 209.417)" fill="#242424"/>
<rect width="10.4861" height="7.86454" rx="1.69" transform="matrix(0.866025 0.5 -0.866025 0.5 102.618 151.743)" fill="#242424"/>
<rect width="10.4861" height="7.86454" rx="1.69" transform="matrix(0.866025 0.5 -0.866025 0.5 148.023 177.958)" fill="#242424"/>
<rect width="23.5936" height="7.86454" rx="1.69" transform="matrix(0.866025 0.5 -0.866025 0.5 182.078 197.62)" fill="#242424"/>
<rect width="10.4861" height="7.86454" rx="1.69" transform="matrix(0.866025 0.5 -0.866025 0.5 84.4551 162.229)" fill="#242424"/>
<rect width="10.4861" height="7.86454" rx="1.69" transform="matrix(0.866025 0.5 -0.866025 0.5 175.267 214.659)" fill="#242424"/>
<rect width="170.398" height="109.579" transform="matrix(0.866025 0.5 -2.20305e-08 1 91.229 2.05469)" fill="#0A0A0A"/>
<rect width="162.534" height="98.0446" rx="7.69264" transform="matrix(0.866025 0.5 -2.20305e-08 1 94.6348 7.95312)" fill="black"/>
<rect width="32.7689" height="1.83506" rx="0.91753" transform="matrix(0.866025 0.5 -2.20305e-08 1 101.446 26.8281)" fill="#05DCA8"/>
<rect width="32.7689" height="1.83506" rx="0.91753" transform="matrix(0.866025 0.5 -2.20305e-08 1 101.446 66.1504)" fill="#7005DC"/>
<rect width="32.7689" height="1.83506" rx="0.91753" transform="matrix(0.866025 0.5 -2.20305e-08 1 134.365 85.1562)" fill="#05DCA8"/>
<rect width="15.4669" height="1.83506" rx="0.91753" transform="matrix(0.866025 0.5 -2.20305e-08 1 101.446 39.9355)" fill="#DCC605"/>
<rect width="15.4669" height="1.83506" rx="0.91753" transform="matrix(0.866025 0.5 -2.20305e-08 1 137.316 60.6455)" fill="#7005DC"/>
<rect width="15.4669" height="1.83506" rx="0.91753" transform="matrix(0.866025 0.5 -2.20305e-08 1 119.381 50.291)" fill="#06CAF5"/>
<rect width="15.4669" height="1.83506" rx="0.91753" transform="matrix(0.866025 0.5 -2.20305e-08 1 134.365 45.834)" fill="#DCC605"/>
<rect width="15.4669" height="1.83506" rx="0.91753" transform="matrix(0.866025 0.5 -2.20305e-08 1 101.446 79.2578)" fill="#05DCA8"/>
<rect width="43.5171" height="1.83506" rx="0.91753" transform="matrix(0.866025 0.5 -2.20305e-08 1 101.446 53.043)" fill="#06CAF5"/>
<rect width="43.5171" height="1.83506" rx="0.91753" transform="matrix(0.866025 0.5 -2.20305e-08 1 101.446 92.3662)" fill="#7005DC"/>
<rect width="43.5171" height="1.83506" rx="0.91753" transform="matrix(0.866025 0.5 -2.20305e-08 1 119.381 89.6133)" fill="#06CAF5"/>
<rect width="109.277" height="4.19442" transform="matrix(0.866025 -0.5 2.20305e-08 1 147.591 248.678)" fill="#090909"/>
<rect width="170.424" height="4.19442" transform="matrix(0.866025 0.5 -2.20305e-08 1 0 163.466)" fill="#161616"/>
<rect width="170.276" height="4.10121" transform="matrix(0.866025 0.5 -0.866025 0.5 94.7725 0)" fill="#232323"/>
<path d="M238.558 87.2539L242.228 85.135L242.228 194.06L238.558 196.179L238.558 87.2539Z" fill="#080808"/>
</svg>
