<svg width="101" height="34" viewBox="0 0 101 34" fill="none" xmlns="http://www.w3.org/2000/svg">
<path d="M17.0024 10.7796L11.9458 13.8484L11.9754 19.5743L17.0797 23.0455L11.9754 26.6677L6.68001 23.0455V10.9145L11.9458 7.98065L15.4472 9.9175L22.657 5.94089L11.9913 0L0 6.72524V26.9581L11.9458 33.8983L24.1826 26.8095V19.5743L20.3538 16.9949L24.1826 14.1891V6.78927L17.0024 10.7796Z" fill="url(#logo_big)"/>
<path d="M32.6747 8.42676H41.2714C44.5955 8.42676 46.5281 10.016 46.5281 12.783C46.5281 14.8982 45.1411 16.4028 42.7947 16.9059V16.9539C45.057 17.4501 46.2984 18.9274 46.2984 20.9214C46.2984 23.6654 44.4113 25.2273 41.1168 25.2273H32.6747V8.42676V8.42676ZM40.1073 15.6985C41.8352 15.6985 42.8106 14.8616 42.8106 13.4507C42.8106 12.0398 41.8352 11.2257 40.0936 11.2257H36.2239V15.6985H40.105H40.1073ZM39.9777 22.4329C41.6283 22.4329 42.5651 21.6851 42.5651 20.3291C42.5651 18.9731 41.6306 18.2208 39.9777 18.2208H36.2261V22.4306H39.9777V22.4329Z" fill="black"/>
<path d="M53.6014 25.4721C49.8317 25.4721 47.4193 22.9979 47.4193 19.2317C47.4193 15.4654 49.8999 12.9912 53.665 12.9912C57.4302 12.9912 59.9017 15.4289 59.9017 19.2317V19.6456H50.9958C51.23 21.228 52.0348 22.8218 53.7833 22.8218C55.0906 22.8218 55.9637 21.9803 56.157 20.8004H59.6948C59.2037 23.7022 56.8436 25.4744 53.5991 25.4744L53.6014 25.4721ZM56.1206 17.5852C55.7841 16.1697 54.8883 15.4197 53.5468 15.4197C52.2054 15.4197 51.2914 16.1858 51.0117 17.5852H56.1183H56.1206Z" fill="black"/>
<path d="M61.2386 13.229H64.8651V25.232H61.2386V13.229Z" fill="black"/>
<path d="M66.8932 13.2289H70.3355L70.5197 16.4554H70.5606C70.7948 14.3196 72.2226 12.9888 74.3576 12.9888C76.4926 12.9888 77.8409 14.2899 78.1455 16.4669H78.191C78.4547 14.3128 79.9326 12.9888 82.0699 12.9888C84.555 12.9888 86.076 14.6741 86.076 17.4364V25.2319H82.4518V18.4243C82.4518 16.7962 81.7356 15.8632 80.4578 15.8632C79.18 15.8632 78.2979 16.8144 78.2979 18.4746V25.2319H74.6714V18.4243C74.6714 16.7962 73.9574 15.8632 72.691 15.8632C71.4246 15.8632 70.5197 16.8259 70.5197 18.4838V25.2319H66.8932V13.2289V13.2289Z" fill="black"/>
<path d="M87.3379 21.7172C87.3379 19.3504 89.0022 17.9967 92.5241 17.8572C94.0997 17.7451 95.9028 18.0539 95.9028 16.8739C95.9028 16.0736 95.0842 15.4561 93.7701 15.4561C92.5355 15.4561 91.6715 16.0484 91.4009 17.0706H87.7744C88.1246 14.5895 90.4346 12.9888 93.7337 12.9888C97.2124 12.9888 99.3815 14.809 99.3815 17.5965V21.2987C99.3815 23.2104 99.5997 24.5093 100.002 25.1976V25.2341H96.5235C96.171 24.7539 96.0142 23.5054 95.9232 21.5205H95.8755C95.5708 23.8758 93.736 25.4742 91.3327 25.4742C88.9295 25.4742 87.3402 23.9879 87.3402 21.7195L87.3379 21.7172ZM90.9325 21.1889C90.9325 22.0899 91.6215 22.6296 92.7219 22.6296C94.4908 22.6296 95.9005 21.3604 95.9005 19.0166V18.8222H95.8527C95.4662 19.6134 94.5226 19.65 93.1289 19.7689C92.0967 19.8672 90.9303 20.1119 90.9303 21.1889H90.9325Z" fill="black"/>
<defs>
<linearGradient id="logo_big" x1="1.66667" y1="-1.95161e-07" x2="20.8333" y2="34.1667" gradientUnits="userSpaceOnUse">
<stop stop-color="#3B4EF2"/>
<stop offset="0.5" stop-color="#061382"/>
<stop offset="1" stop-color="#EDEEEF"/>
</linearGradient>
</defs>
</svg>
