<svg width="100" height="34" viewBox="0 0 100 34" fill="none" xmlns="http://www.w3.org/2000/svg">
<g clip-path="url(#clip0_163_8043)">
<path d="M17.0024 10.7796L11.9458 13.8484L11.9754 19.5743L17.0797 23.0455L11.9754 26.6677L6.68001 23.0455V10.9145L11.9458 7.98065L15.4472 9.9175L22.657 5.94089L11.9913 0L0 6.72524V26.9581L11.9458 33.8983L24.1826 26.8095V19.5743L20.3538 16.9949L24.1826 14.1891V6.78927L17.0024 10.7796Z" fill="url(#paint0_linear_163_8043)"/>
<path d="M32.6747 8.42651H41.2714C44.5955 8.42651 46.5281 10.0158 46.5281 12.7827C46.5281 14.8979 45.1412 16.4026 42.7948 16.9057V16.9537C45.0571 17.4499 46.2985 18.9271 46.2985 20.9211C46.2985 23.6652 44.4113 25.227 41.1168 25.227H32.6747V8.42651ZM40.1073 15.6983C41.8353 15.6983 42.8107 14.8613 42.8107 13.4504C42.8107 12.0395 41.8353 11.2255 40.0937 11.2255H36.2239V15.6983H40.105H40.1073ZM39.9777 22.4327C41.6284 22.4327 42.5651 21.6849 42.5651 20.3289C42.5651 18.9729 41.6307 18.2205 39.9777 18.2205H36.2262V22.4304H39.9777V22.4327Z" fill="black"/>
<path d="M53.6015 25.4716C49.8317 25.4716 47.4194 22.9974 47.4194 19.2312C47.4194 15.465 49.9 12.9907 53.6651 12.9907C57.4303 12.9907 59.9018 15.4284 59.9018 19.2312V19.6451H50.9959C51.23 21.2275 52.0349 22.8213 53.7834 22.8213C55.0907 22.8213 55.9638 21.9798 56.1571 20.7999H59.6949C59.2038 23.7017 56.8437 25.4739 53.5992 25.4739L53.6015 25.4716ZM56.1207 17.5847C55.7842 16.1693 54.8884 15.4192 53.5469 15.4192C52.2054 15.4192 51.2914 16.1853 51.0118 17.5847H56.1184H56.1207Z" fill="black"/>
<path d="M61.2387 13.2285H64.8652V25.2315H61.2387V13.2285Z" fill="black"/>
<path d="M66.8933 13.2286H70.3356L70.5198 16.4552H70.5607C70.7949 14.3194 72.2227 12.9885 74.3577 12.9885C76.4927 12.9885 77.8409 14.2897 78.1456 16.4666H78.1911C78.4548 14.3125 79.9327 12.9885 82.0699 12.9885C84.555 12.9885 86.0761 14.6738 86.0761 17.4362V25.2316H82.4519V18.4241C82.4519 16.7959 81.7357 15.8629 80.4579 15.8629C79.1801 15.8629 78.2979 16.8142 78.2979 18.4744V25.2316H74.6715V18.4241C74.6715 16.7959 73.9575 15.8629 72.6911 15.8629C71.4247 15.8629 70.5198 16.8256 70.5198 18.4835V25.2316H66.8933V13.2286Z" fill="black"/>
<path d="M87.338 21.7169C87.338 19.3502 89.0023 17.9964 92.5242 17.8569C94.0999 17.7449 95.9029 18.0536 95.9029 16.8737C95.9029 16.0733 95.0844 15.4559 93.7702 15.4559C92.5356 15.4559 91.6716 16.0482 91.401 17.0703H87.7745C88.1247 14.5892 90.4347 12.9885 93.7338 12.9885C97.2125 12.9885 99.3816 14.8088 99.3816 17.5963V21.2985C99.3816 23.2102 99.5998 24.509 100.002 25.1973V25.2339H96.5236C96.1712 24.7537 96.0143 23.5051 95.9233 21.5203H95.8756C95.5709 23.8756 93.7361 25.474 91.3328 25.474C88.9296 25.474 87.3403 23.9876 87.3403 21.7192L87.338 21.7169ZM90.9326 21.1887C90.9326 22.0897 91.6216 22.6293 92.722 22.6293C94.4909 22.6293 95.9006 21.3602 95.9006 19.0163V18.8219H95.8528C95.4663 19.6131 94.5228 19.6497 93.129 19.7686C92.0968 19.867 90.9304 20.1117 90.9304 21.1887H90.9326Z" fill="black"/>
</g>
<defs>
<linearGradient id="paint0_linear_163_8043" x1="1.66667" y1="-1.95161e-07" x2="20.8333" y2="34.1667" gradientUnits="userSpaceOnUse">
<stop stop-color="#3B4EF2"/>
<stop offset="0.5" stop-color="#061382"/>
<stop offset="1" stop-color="#EDEEEF"/>
</linearGradient>
<clipPath id="clip0_163_8043">
<rect width="100" height="33.8983" fill="white"/>
</clipPath>
</defs>
</svg>
